<?xml version="1.0" encoding="UTF-8"?><svg id="Layer_2" xmlns="http://www.w3.org/2000/svg" viewBox="0 0 272.59 83.82"><defs><style>.cls-1{fill:#e5e5e5;fill-rule:evenodd;}</style></defs><g id="Capa_1"><path class="cls-1" d="M21.46,26.65H7.61c-.33,1.61-.3,3.03.07,4.26.37,1.23,1.01,2.15,1.92,2.77.91.63,2,.94,3.26.94.85,0,1.64-.1,2.38-.3.75-.19,1.49-.5,2.23-.93.75-.42,1.45-.88,2.1-1.36.66-.49,1.52-1.14,2.58-1.97.43-.31.98-.47,1.65-.47.73,0,1.27.2,1.64.6.36.39.47.96.31,1.68-.14.64-.55,1.38-1.23,2.24-.69.85-1.61,1.67-2.8,2.45-1.18.79-2.58,1.44-4.22,1.96-1.64.52-3.46.78-5.44.78-4.55,0-7.8-1.3-9.77-3.89-1.97-2.59-2.48-6.1-1.53-10.55.45-2.09,1.17-4.03,2.17-5.82,1-1.79,2.24-3.32,3.7-4.6,1.47-1.27,3.14-2.26,5.03-2.94,1.89-.68,3.9-1.03,6.02-1.03,2.77,0,5.02.58,6.74,1.75,1.73,1.17,2.89,2.67,3.48,4.53.59,1.85.68,3.73.27,5.65-.38,1.78-1.14,2.94-2.27,3.47-1.13.52-2.62.79-4.47.79h0ZM8.47,22.61h12.83c.35-2.42.08-4.22-.8-5.42-.88-1.19-2.24-1.8-4.08-1.8s-3.34.61-4.73,1.82c-1.39,1.22-2.47,3.02-3.21,5.4h0ZM42.27,14.42l-.18.86c1.6-1.65,3.22-2.85,4.86-3.62,1.64-.77,3.42-1.15,5.34-1.15s3.44.41,4.75,1.22c1.3.81,2.15,1.96,2.56,3.44.28.87.39,1.8.31,2.8-.08,1-.28,2.27-.61,3.83l-2.81,13.17c-.3,1.42-.86,2.49-1.66,3.21-.8.73-1.73,1.09-2.76,1.09s-1.83-.37-2.34-1.11c-.5-.74-.6-1.8-.3-3.18l2.52-11.8c.5-2.33.55-4.11.17-5.35-.38-1.23-1.54-1.85-3.48-1.85-1.26,0-2.49.37-3.69,1.12-1.2.75-2.18,1.79-2.94,3.11-.57,1.05-1.17,3.02-1.78,5.91l-1.89,8.86c-.31,1.43-.87,2.5-1.69,3.22-.82.72-1.75,1.08-2.8,1.08s-1.78-.37-2.27-1.11c-.5-.74-.6-1.8-.3-3.18l4.36-20.45c.29-1.34.79-2.35,1.52-3.02.73-.66,1.6-1,2.62-1,.62,0,1.15.15,1.59.44.44.29.75.73.92,1.32.18.58.17,1.31,0,2.15h0ZM89.88,30.53c-.19.88-.65,1.82-1.4,2.82-.74,1-1.74,1.96-3.02,2.86-1.27.9-2.79,1.64-4.55,2.19-1.76.56-3.66.83-5.72.83-4.37,0-7.51-1.27-9.42-3.82-1.92-2.55-2.42-5.96-1.5-10.25.62-2.9,1.73-5.47,3.33-7.7,1.6-2.23,3.59-3.95,5.98-5.17,2.39-1.22,5.06-1.83,8.02-1.83,1.83,0,3.46.27,4.87.81,1.41.54,2.56,1.23,3.44,2.08.88.85,1.5,1.75,1.86,2.71.36.96.45,1.86.28,2.69-.18.85-.65,1.57-1.41,2.16-.76.58-1.58.88-2.49.88-.58,0-1.04-.15-1.36-.45-.33-.3-.65-.79-1-1.46-.59-1.31-1.28-2.3-2.08-2.95-.81-.65-1.93-.98-3.38-.98-2.09,0-3.95.81-5.57,2.45-1.63,1.63-2.74,3.86-3.34,6.69-.28,1.33-.38,2.55-.29,3.66.09,1.11.36,2.07.82,2.85.45.79,1.08,1.38,1.88,1.79.79.41,1.72.61,2.77.61,1.42,0,2.7-.33,3.85-.98,1.16-.65,2.27-1.66,3.33-3.01.59-.8,1.2-1.42,1.79-1.86.59-.45,1.26-.68,1.99-.68.87,0,1.51.34,1.94.99.43.65.57,1.35.41,2.1h0ZM107.21,4.3l-2.23,10.48c1.12-1.03,2.17-1.86,3.16-2.46.98-.6,2.02-1.06,3.12-1.36,1.11-.3,2.25-.45,3.45-.45,1.8,0,3.31.38,4.54,1.14,1.23.76,2.08,1.87,2.57,3.32.33.84.46,1.79.41,2.84-.05,1.04-.22,2.25-.51,3.61l-2.89,13.56c-.3,1.42-.86,2.49-1.66,3.21-.8.73-1.74,1.09-2.82,1.09-2.34,0-3.2-1.43-2.59-4.3l2.55-11.95c.48-2.26.52-4.01.1-5.22-.41-1.22-1.56-1.83-3.45-1.83-1.26,0-2.47.36-3.64,1.08-1.16.72-2.13,1.69-2.89,2.94-.6,1.05-1.2,2.93-1.77,5.63l-2,9.36c-.3,1.4-.84,2.46-1.63,3.19-.78.73-1.74,1.11-2.85,1.11-2.33,0-3.19-1.43-2.58-4.3l6.54-30.68c.31-1.43.84-2.5,1.61-3.22.76-.72,1.7-1.08,2.8-1.08s1.91.36,2.39,1.09c.47.73.56,1.8.26,3.21h0ZM143.64,35.31c-2,1.33-3.87,2.32-5.6,2.98-1.74.66-3.61.99-5.59.99-1.81,0-3.34-.36-4.56-1.08-1.22-.72-2.07-1.68-2.56-2.91-.48-1.23-.57-2.56-.26-3.99.41-1.94,1.37-3.58,2.89-4.95,1.52-1.37,3.41-2.28,5.66-2.75.46-.11,1.63-.34,3.48-.7,1.86-.36,3.46-.69,4.79-1,1.33-.3,2.79-.66,4.37-1.1.31-1.87.23-3.24-.25-4.11-.49-.88-1.76-1.31-3.86-1.31-1.8,0-3.2.25-4.21.75-1.02.5-1.96,1.25-2.82,2.26-.86,1-1.46,1.65-1.79,1.98-.34.32-.95.48-1.83.48-.8,0-1.43-.26-1.9-.77-.47-.5-.62-1.16-.45-1.96.27-1.25.97-2.46,2.09-3.64,1.14-1.18,2.71-2.14,4.74-2.9,2.03-.76,4.44-1.14,7.22-1.14,3.11,0,5.48.37,7.1,1.11,1.62.73,2.63,1.89,3.03,3.49.39,1.59.32,3.7-.24,6.33-.35,1.66-.66,3.07-.92,4.23-.26,1.16-.54,2.45-.86,3.87-.28,1.33-.36,2.72-.22,4.16.14,1.43.15,2.36.06,2.78-.15.73-.63,1.39-1.44,1.98-.82.59-1.65.89-2.52.89-.73,0-1.37-.34-1.93-1.02-.56-.68-1.1-1.66-1.63-2.95h0ZM145.36,25.05c-1.12.38-2.71.79-4.78,1.2-2.06.42-3.5.74-4.3.94-.8.2-1.61.59-2.43,1.17-.81.58-1.33,1.39-1.55,2.43-.23,1.07-.02,1.98.64,2.73.64.75,1.63,1.13,2.94,1.13,1.4,0,2.76-.31,4.06-.92,1.32-.62,2.35-1.41,3.12-2.38.87-1.07,1.56-2.84,2.08-5.3l.21-1.01h0ZM168.16,14.42l-.18.86c1.6-1.65,3.22-2.85,4.86-3.62,1.64-.77,3.42-1.15,5.34-1.15s3.44.41,4.75,1.22c1.3.81,2.15,1.96,2.56,3.44.28.87.39,1.8.31,2.8-.08,1-.28,2.27-.61,3.83l-2.81,13.17c-.3,1.42-.86,2.49-1.66,3.21-.8.73-1.73,1.09-2.76,1.09s-1.83-.37-2.34-1.11c-.5-.74-.6-1.8-.3-3.18l2.52-11.8c.5-2.33.55-4.11.17-5.35-.38-1.23-1.54-1.85-3.48-1.85-1.26,0-2.49.37-3.69,1.12-1.2.75-2.18,1.79-2.94,3.11-.57,1.05-1.16,3.02-1.78,5.91l-1.89,8.86c-.31,1.43-.87,2.5-1.69,3.22-.82.72-1.75,1.08-2.8,1.08s-1.78-.37-2.28-1.11c-.5-.74-.6-1.8-.3-3.18l4.36-20.45c.29-1.34.79-2.35,1.52-3.02.73-.66,1.6-1,2.62-1,.62,0,1.15.15,1.59.44.44.29.75.73.92,1.32.18.58.17,1.31,0,2.15h0ZM194.9,11.15h.78l.91-4.26c.24-1.14.46-2.03.66-2.68.2-.65.49-1.21.86-1.67.38-.49.86-.88,1.45-1.19.49-.26,1.01-.4,1.55-.44.68-.05,1.38.13,1.95.52.76.52,1.12,1.23,1.11,2.13,0,.65-.14,1.57-.39,2.76l-1.03,4.82h2.59c1,0,1.72.24,2.14.71.43.48.56,1.09.41,1.82-.2.96-.73,1.62-1.56,2-.83.38-1.94.57-3.35.57h-1.32l-2.77,13.01c-.24,1.11-.38,1.96-.43,2.56-.05.59.05,1.08.31,1.45.27.37.77.56,1.54.56.41,0,.99-.07,1.73-.22.74-.14,1.31-.22,1.7-.22.58,0,1.04.23,1.4.69.36.46.46,1.03.32,1.7-.24,1.14-1.05,2.01-2.41,2.61-1.38.61-3.23.91-5.56.91-2.21,0-3.8-.37-4.78-1.11-.98-.74-1.51-1.77-1.58-3.09-.07-1.31.12-3.06.59-5.26l2.89-13.58h-.93c-1.03,0-1.75-.24-2.18-.73-.44-.48-.57-1.1-.41-1.84.16-.73.57-1.34,1.23-1.82.67-.47,1.53-.71,2.6-.71h0ZM229.74,26.65h-13.85c-.33,1.61-.3,3.03.07,4.26.37,1.23,1.01,2.15,1.92,2.77.91.63,2,.94,3.26.94.85,0,1.64-.1,2.38-.3.75-.19,1.49-.5,2.23-.93.75-.42,1.45-.88,2.1-1.36.66-.49,1.52-1.14,2.58-1.97.43-.31.98-.47,1.65-.47.73,0,1.27.2,1.64.6.36.39.47.96.31,1.68-.14.64-.55,1.38-1.23,2.24-.69.85-1.61,1.67-2.8,2.45-1.18.79-2.58,1.44-4.22,1.96-1.64.52-3.46.78-5.44.78-4.55,0-7.8-1.3-9.77-3.89-1.97-2.59-2.48-6.1-1.53-10.55.44-2.09,1.17-4.03,2.17-5.82,1-1.79,2.24-3.32,3.7-4.6,1.47-1.27,3.14-2.26,5.03-2.94,1.89-.68,3.9-1.03,6.02-1.03,2.77,0,5.02.58,6.74,1.75,1.73,1.17,2.89,2.67,3.48,4.53.59,1.85.68,3.73.27,5.65-.38,1.78-1.14,2.94-2.27,3.47-1.13.52-2.62.79-4.47.79h0ZM216.75,22.61h12.83c.35-2.42.08-4.22-.8-5.42-.88-1.19-2.24-1.8-4.08-1.8s-3.34.61-4.73,1.82c-1.39,1.22-2.47,3.02-3.21,5.4h0ZM259.08,35.24l.15-.7c-1.18,1.09-2.3,1.97-3.38,2.65-1.07.68-2.18,1.2-3.34,1.56-1.15.35-2.37.53-3.65.53-1.69,0-3.18-.36-4.47-1.08-1.29-.72-2.33-1.73-3.1-3.07-.77-1.33-1.23-2.89-1.4-4.69-.16-1.8-.02-3.74.43-5.83.94-4.42,2.76-7.87,5.44-10.34,2.68-2.47,5.8-3.71,9.32-3.71,2.04,0,3.68.35,4.93,1.05,1.25.7,2.39,1.78,3.41,3.24l2.23-10.45c.31-1.45.84-2.55,1.57-3.29.74-.74,1.64-1.11,2.71-1.11s1.82.34,2.26,1.03c.43.68.51,1.69.22,3.02l-6.65,31.19c-.29,1.34-.81,2.36-1.58,3.03-.77.67-1.65,1.01-2.63,1.01s-1.69-.35-2.17-1.05c-.48-.7-.58-1.7-.31-2.99h0ZM247.39,24.85c-.41,1.92-.46,3.55-.15,4.9.31,1.34.91,2.35,1.8,3.03.89.68,1.95,1.03,3.17,1.03s2.45-.33,3.61-.97c1.16-.65,2.2-1.64,3.09-2.97.9-1.34,1.56-3.01,1.99-5.02.4-1.88.44-3.49.11-4.85-.32-1.36-.93-2.4-1.82-3.11s-1.96-1.07-3.2-1.07-2.53.36-3.7,1.1c-1.17.73-2.19,1.79-3.04,3.16-.85,1.38-1.47,2.97-1.86,4.78Z"/><path class="cls-1" d="M38.21,83.2v-17.95c0-5.03-2.44-7.54-7.32-7.54-2.7,0-4.86.75-6.47,2.25-1.61,1.5-2.42,3.51-2.42,6.02v17.22h-2.87v-17.95c0-5.03-2.49-7.54-7.48-7.54-2.81,0-5.03,1.03-6.64,3.09-1.43,1.88-2.14,4.2-2.14,6.98v15.42H0v-27.52h2.87v3.6c2.1-2.81,5.21-4.22,9.34-4.22s7.18,1.61,8.83,4.84c1.88-3.23,5.12-4.84,9.73-4.84,6.86,0,10.3,3.23,10.3,9.68v18.46h-2.87ZM69.61,83.26v-4.95c-2.51,3.68-6.32,5.51-11.42,5.51-4.35,0-7.78-1.39-10.3-4.16-2.36-2.63-3.55-6-3.55-10.13s1.2-7.67,3.6-10.3c2.51-2.78,6-4.16,10.47-4.16,5.03,0,8.76,1.78,11.2,5.35v-5.23h2.87v28.08h-2.87ZM66.74,60.97c-2.03-2.18-4.9-3.26-8.61-3.26-3.45,0-6.19,1.16-8.22,3.49-1.84,2.18-2.76,4.95-2.76,8.33s.92,6.17,2.76,8.27c1.95,2.25,4.69,3.38,8.22,3.38s6.27-1.11,8.36-3.32c2.08-2.21,3.12-4.99,3.12-8.33,0-3.6-.96-6.45-2.87-8.55h0ZM84.07,59.57v23.63h-2.76l-.11-23.63h-5.57v-2.64h5.57v-8.27h2.87v8.27h5.68v2.64h-5.68ZM98.87,59.57v23.63h-2.76l-.11-23.63h-5.57v-2.64h5.57v-8.27h2.87v8.27h5.68v2.64h-5.68ZM108.32,70.48c.37,7.13,4.15,10.69,11.31,10.69,5.44,0,9.02-2.23,10.75-6.7h2.93c-1.09,3.53-2.94,6-5.57,7.43-2.29,1.28-5.03,1.91-8.22,1.91-4.61,0-8.14-1.33-10.58-4-2.29-2.48-3.43-5.91-3.43-10.3s1.3-7.8,3.91-10.47,6.07-4,10.38-4,7.77,1.21,10.35,3.63c2.59,2.42,3.88,5.67,3.88,9.76v1.97l-25.72.06h0ZM119.8,57.71c-3.19,0-5.81.9-7.85,2.7-2.04,1.8-3.24,4.28-3.57,7.43h22.51c-.19-3.15-1.28-5.63-3.29-7.43-2.01-1.8-4.6-2.7-7.79-2.7h0ZM142.19,62.21c-1.65,2.59-2.48,5.91-2.48,9.96v11.03h-2.87v-27.52h2.87v4.67c.56-.83,1.28-1.59,2.14-2.31,2.48-1.99,5.76-2.98,9.85-2.98v2.64c-4.39,0-7.56,1.5-9.51,4.5Z"/></g></svg>