<?xml version="1.0" encoding="UTF-8"?><svg id="Layer_2" xmlns="http://www.w3.org/2000/svg" viewBox="0 0 191.57 221.21"><defs><style>.cls-1{fill:#bfa76a;}.cls-1,.cls-2{fill-rule:evenodd;}.cls-2{fill:#666;}</style></defs><g id="Capa_1"><polygon class="cls-2" points="95.79 0 143.68 27.65 191.57 55.3 191.57 110.6 191.57 165.91 143.68 193.56 95.79 221.21 47.89 193.56 0 165.91 0 110.6 0 55.3 47.89 27.65 95.79 0"/><path class="cls-1" d="M96.3,40.8l29.78,17.19,30.29,17.49v69.37l-60.07-34.68V40.8h0ZM95.27,110.16l-60.07,34.68v-69.37l30.29-17.49,29.78-17.19v69.37h0ZM155.86,145.73l-60.07-34.68-60.07,34.68,29.78,17.19,30.29,17.49,30.29-17.49,29.78-17.19Z"/></g></svg>