<?xml version="1.0" encoding="UTF-8"?><svg id="Layer_2" xmlns="http://www.w3.org/2000/svg" viewBox="0 0 151.7 35.17"><defs><style>.cls-1{fill:#989898;fill-rule:evenodd;}</style></defs><g id="Capa_1"><path class="cls-1" d="M38.21,34.55v-17.95c0-5.03-2.44-7.54-7.32-7.54-2.7,0-4.86.75-6.47,2.25-1.61,1.5-2.42,3.51-2.42,6.02v17.22h-2.87v-17.95c0-5.03-2.49-7.54-7.48-7.54-2.81,0-5.03,1.03-6.64,3.09-1.43,1.88-2.14,4.2-2.14,6.98v15.42H0V7.03h2.87v3.6c2.1-2.81,5.21-4.22,9.34-4.22s7.18,1.61,8.83,4.84c1.88-3.23,5.12-4.84,9.73-4.84,6.86,0,10.3,3.23,10.3,9.68v18.46h-2.87ZM69.61,34.61v-4.95c-2.51,3.68-6.32,5.51-11.42,5.51-4.35,0-7.78-1.39-10.3-4.16-2.36-2.63-3.54-6-3.54-10.13s1.2-7.67,3.6-10.3c2.51-2.78,6-4.16,10.47-4.16,5.03,0,8.76,1.78,11.2,5.35v-5.23h2.87v28.08h-2.87ZM66.74,12.32c-2.03-2.18-4.9-3.26-8.61-3.26-3.45,0-6.19,1.16-8.22,3.49-1.84,2.18-2.76,4.95-2.76,8.33s.92,6.17,2.76,8.27c1.95,2.25,4.69,3.38,8.22,3.38s6.27-1.11,8.36-3.32c2.08-2.21,3.12-4.99,3.12-8.33,0-3.6-.96-6.45-2.87-8.55h0ZM84.07,10.92v23.63h-2.76l-.11-23.63h-5.57v-2.64h5.57V0h2.87v8.27h5.68v2.64h-5.68ZM98.87,10.92v23.63h-2.76l-.11-23.63h-5.57v-2.64h5.57V0h2.87v8.27h5.68v2.64h-5.68ZM108.32,21.83c.38,7.13,4.15,10.69,11.31,10.69,5.44,0,9.02-2.23,10.75-6.7h2.93c-1.09,3.53-2.94,6-5.57,7.43-2.29,1.28-5.03,1.91-8.22,1.91-4.61,0-8.14-1.33-10.58-4-2.29-2.48-3.43-5.91-3.43-10.3s1.3-7.8,3.91-10.47,6.07-4,10.38-4,7.77,1.21,10.35,3.63c2.59,2.42,3.88,5.67,3.88,9.76v1.97l-25.72.06h0ZM119.8,9.06c-3.19,0-5.81.9-7.85,2.7-2.04,1.8-3.24,4.28-3.57,7.43h22.51c-.19-3.15-1.28-5.63-3.29-7.43-2.01-1.8-4.6-2.7-7.79-2.7h0ZM142.19,13.56c-1.65,2.59-2.48,5.91-2.48,9.96v11.03h-2.87V7.03h2.87v4.67c.56-.83,1.28-1.59,2.14-2.31,2.48-1.99,5.76-2.98,9.85-2.98v2.64c-4.39,0-7.56,1.5-9.51,4.5Z"/></g></svg>