<?xml version="1.0" encoding="UTF-8"?><svg id="Layer_2" xmlns="http://www.w3.org/2000/svg" viewBox="0 0 114.9 48.22"><defs><style>.cls-1{fill:gray;fill-rule:evenodd;}</style></defs><g id="Capa_1"><path class="cls-1" d="M38.21,38.15v-17.95c0-5.03-2.44-7.54-7.32-7.54-2.7,0-4.86.75-6.47,2.25-1.61,1.5-2.42,3.51-2.42,6.02v17.22h-2.87v-17.95c0-5.03-2.49-7.54-7.48-7.54-2.81,0-5.03,1.03-6.64,3.09-1.43,1.88-2.14,4.2-2.14,6.98v15.42H0V10.64h2.87v3.6c2.1-2.81,5.21-4.22,9.34-4.22s7.18,1.61,8.83,4.84c1.88-3.23,5.12-4.84,9.73-4.84,6.86,0,10.3,3.23,10.3,9.68v18.46h-2.87ZM57.11,48.22c-3.34,0-6.08-.66-8.22-1.97-2.63-1.58-4.03-4.22-4.22-7.93h2.87c.41,4.84,3.64,7.26,9.68,7.26,6.98,0,10.47-2.93,10.47-8.78v-2.08c-2.21,2.96-5.57,4.45-10.07,4.45-3.53,0-6.32-.86-8.38-2.59-2.18-1.84-3.26-4.43-3.26-7.77V10.69h2.87v18.06c0,5.18,2.93,7.77,8.78,7.77,3.38,0,5.93-.99,7.65-2.98,1.61-1.88,2.42-4.46,2.42-7.77v-15.08h2.87v26.17c0,7.58-4.48,11.37-13.45,11.37h0ZM81.87,14.52v23.63h-2.76l-.11-23.63h-5.57v-2.64h5.57V3.6h2.87v8.27h5.68v2.64h-5.68ZM112.03,38.15v-18.23c0-2.48-.78-4.37-2.34-5.68s-3.67-1.97-6.33-1.97c-3.15,0-5.64.95-7.46,2.84-1.82,1.89-2.73,4.36-2.73,7.4v15.64h-2.87V0h2.87v14.01c2.18-2.96,5.55-4.45,10.13-4.45,3.34,0,6.06.81,8.16,2.42,2.29,1.76,3.43,4.24,3.43,7.43v18.74h-2.87Z"/></g></svg>