<?xml version="1.0" encoding="UTF-8"?><svg id="Layer_2" xmlns="http://www.w3.org/2000/svg" viewBox="0 0 122.17 38.77"><defs><style>.cls-1{fill:#b2b2b2;fill-rule:evenodd;}</style></defs><g id="Capa_1"><path class="cls-1" d="M38.21,9.4v17.95c0,5.03-2.44,7.54-7.32,7.54-2.7,0-4.86-.75-6.47-2.25-1.61-1.5-2.42-3.51-2.42-6.02V9.4h-2.87v17.95c0,5.03-2.49,7.54-7.48,7.54-2.81,0-5.03-1.03-6.64-3.09-1.43-1.88-2.14-4.2-2.14-6.98v-15.42H0v27.52h2.87v-3.6c2.1,2.81,5.21,4.22,9.34,4.22s7.18-1.61,8.83-4.84c1.88,3.23,5.12,4.84,9.73,4.84,6.86,0,10.3-3.23,10.3-9.68V9.4h-2.87Z"/><path class="cls-1" d="M58.92,38.77c-4.46,0-8-1.33-10.61-4-2.61-2.66-3.91-6.11-3.91-10.35s1.34-7.89,4.02-10.49c2.68-2.61,6.22-3.91,10.61-3.91s7.91,1.3,10.55,3.91c2.64,2.61,3.97,6.11,3.97,10.49s-1.34,7.88-4.02,10.47c-2.68,2.59-6.22,3.88-10.61,3.88h0ZM67.59,15.9c-2.06-2.16-4.93-3.24-8.61-3.24s-6.45,1.06-8.55,3.18c-2.1,2.12-3.15,4.98-3.15,8.58s1.06,6.41,3.18,8.52c2.12,2.12,4.96,3.18,8.52,3.18s6.41-1.06,8.52-3.18c2.12-2.12,3.18-4.96,3.18-8.52s-1.03-6.37-3.09-8.52h0ZM82.05,17.16c-1.65,2.59-2.48,5.91-2.48,9.96v11.03h-2.87V10.64h2.87v4.67c.56-.83,1.28-1.59,2.14-2.31,2.48-1.99,5.76-2.98,9.85-2.98v2.64c-4.39,0-7.56,1.5-9.51,4.5h0ZM118.28,38.15l-14.52-15.31-6.3,4.45v10.86h-2.87V0h2.87v23.97l19.3-13.79,5.06.11-15.76,10.92,16.09,16.94h-3.88Z"/></g></svg>